<svg xmlns="http://www.w3.org/2000/svg" version="1.0" width="64.000000pt" height="64.000000pt" viewBox="-3 -3 70 70" preserveAspectRatio="xMidYMid meet"><g id="deeditor_bgCarrier" stroke-width="0">
    <rect id="dee_c_e" x="-3" y="-3" width="70" height="70" rx="0" fill="#991b1b" strokewidth="0"/>
  </g>

<g transform="translate(0.000000,64.000000) scale(0.100000,-0.100000)" fill="#ffffff" stroke="none">
<path d="M180 479 c-80 -67 -147 -125 -148 -130 -6 -14 10 -10 30 8 17 16 18 12 18 -110 0 -120 -1 -127 -20 -127 -11 0 -20 -4 -20 -10 0 -6 103 -10 290 -10 187 0 290 4 290 10 0 6 -9 10 -20 10 -19 0 -20 7 -20 127 0 122 1 126 18 110 20 -18 36 -22 30 -8 -3 10 -290 251 -298 251 -3 0 -70 -55 -150 -121z m274 -5 l106 -87 0 -134 0 -133 -230 0 -230 0 0 133 0 134 112 92 c61 50 117 90 124 87 7 -3 60 -44 118 -92z" fill="#ffffff"/>
<path d="M313 493 c-15 -6 -17 -39 -3 -48 20 -12 9 -21 -20 -17 -41 6 -58 -11 -100 -99 l-35 -71 24 -19 c30 -24 72 -24 102 0 l24 19 -33 68 c-26 52 -30 69 -20 75 33 21 68 1 68 -38 0 -13 5 -23 10 -23 6 0 10 13 10 30 0 23 5 31 25 36 14 3 32 1 40 -6 12 -10 9 -21 -18 -77 l-32 -65 24 -19 c30 -24 72 -24 102 0 l24 19 -35 71 c-42 88 -59 105 -100 99 -34 -5 -34 -5 -18 21 9 15 9 23 -1 35 -14 17 -18 18 -38 9z m27 -23 c0 -5 -4 -10 -10 -10 -5 0 -10 5 -10 10 0 6 5 10 10 10 6 0 10 -4 10 -10z m-87 -145 c9 -20 17 -38 17 -40 0 -3 -18 -5 -40 -5 -22 0 -40 2 -40 5 0 11 34 75 40 75 3 0 14 -16 23 -35z m200 0 c9 -20 17 -38 17 -40 0 -3 -18 -5 -40 -5 -22 0 -40 2 -40 5 0 11 34 75 40 75 3 0 14 -16 23 -35z m-188 -75 c-3 -5 -19 -10 -35 -10 -16 0 -32 5 -35 10 -4 6 10 10 35 10 25 0 39 -4 35 -10z m200 0 c-3 -5 -19 -10 -35 -10 -16 0 -32 5 -35 10 -4 6 10 10 35 10 25 0 39 -4 35 -10z" fill="#ffffff"/>
<path d="M120 160 c0 -11 5 -20 10 -20 6 0 10 9 10 20 0 11 -4 20 -10 20 -5 0 -10 -9 -10 -20z" fill="#ffffff"/>
<path d="M170 160 c0 -11 5 -20 10 -20 6 0 10 9 10 20 0 11 -4 20 -10 20 -5 0 -10 -9 -10 -20z" fill="#ffffff"/>
<path d="M220 160 c0 -11 5 -20 10 -20 6 0 10 9 10 20 0 11 -4 20 -10 20 -5 0 -10 -9 -10 -20z" fill="#ffffff"/>
<path d="M270 160 c0 -11 5 -20 10 -20 6 0 10 9 10 20 0 11 -4 20 -10 20 -5 0 -10 -9 -10 -20z" fill="#ffffff"/>
<path d="M320 160 c0 -11 5 -20 10 -20 6 0 10 9 10 20 0 11 -4 20 -10 20 -5 0 -10 -9 -10 -20z" fill="#ffffff"/>
<path d="M370 160 c0 -11 5 -20 10 -20 6 0 10 9 10 20 0 11 -4 20 -10 20 -5 0 -10 -9 -10 -20z" fill="#ffffff"/>
<path d="M420 160 c0 -11 5 -20 10 -20 6 0 10 9 10 20 0 11 -4 20 -10 20 -5 0 -10 -9 -10 -20z" fill="#ffffff"/>
<path d="M470 160 c0 -11 5 -20 10 -20 6 0 10 9 10 20 0 11 -4 20 -10 20 -5 0 -10 -9 -10 -20z" fill="#ffffff"/>
<path d="M520 160 c0 -11 5 -20 10 -20 6 0 10 9 10 20 0 11 -4 20 -10 20 -5 0 -10 -9 -10 -20z" fill="#ffffff"/>
</g>
</svg>