<svg xmlns="http://www.w3.org/2000/svg" version="1.0" width="80.000000pt" height="80.000000pt" viewBox="-3 -3 86 86" preserveAspectRatio="xMidYMid meet"><g id="deeditor_bgCarrier" stroke-width="0">
  <rect id="dee_c_e" x="-3" y="-3" width="86" height="86" rx="38.4" fill="#991b1b" strokewidth="0"/>
</g>

<g transform="translate(0.000000,80.000000) scale(0.100000,-0.100000)" fill="#feffff" stroke="none">
<path d="M640 702 c0 -5 -11 -14 -24 -20 -41 -18 -39 -83 3 -97 15 -4 21 -15 21 -36 0 -31 -17 -40 -26 -14 -7 17 -34 21 -34 5 0 -9 16 -26 55 -59 10 -8 20 -10 24 -5 3 5 18 17 34 27 17 11 27 26 27 42 0 26 -24 55 -46 55 -9 0 -14 11 -14 30 0 31 16 41 26 15 4 -8 12 -15 20 -15 20 0 -4 48 -28 55 -10 4 -18 11 -18 16 0 5 -4 9 -10 9 -5 0 -10 -4 -10 -8z m0 -69 c0 -25 -1 -26 -16 -11 -9 9 -13 21 -10 27 13 20 26 11 26 -16z m45 -88 c0 -10 -6 -20 -12 -22 -8 -3 -13 5 -13 22 0 17 5 25 13 23 6 -3 12 -13 12 -23z" fill="#feffff"/>
<path d="M443 653 c-38 -19 -41 -29 -13 -38 11 -3 20 -11 20 -17 0 -5 -30 -40 -67 -77 -70 -69 -170 -129 -250 -150 -24 -7 -43 -16 -43 -22 0 -22 143 32 224 86 55 37 146 128 146 147 0 6 6 8 13 5 52 -21 50 -22 42 14 -15 78 -17 79 -72 52z m47 -29 c0 -11 -5 -14 -16 -10 -9 3 -18 6 -20 6 -3 0 -2 5 1 10 10 16 35 12 35 -6z" fill="#feffff"/>
<path d="M420 270 l0 -150 -25 0 -25 0 0 100 0 100 -60 0 -60 0 0 -100 0 -100 -25 0 c-24 0 -25 2 -25 65 l0 65 -60 0 -60 0 0 -65 c0 -51 -3 -65 -15 -65 -8 0 -15 -4 -15 -10 0 -6 123 -10 350 -10 227 0 350 4 350 10 0 6 -9 10 -20 10 -19 0 -20 7 -20 150 l0 150 -60 0 -60 0 0 -150 0 -150 -25 0 -25 0 0 150 0 150 -60 0 -60 0 0 -150z m100 111 c0 -11 -6 -22 -12 -25 -10 -5 -10 -7 0 -12 6 -3 12 -14 12 -24 0 -10 -6 -21 -12 -24 -10 -5 -10 -7 0 -12 6 -3 12 -14 12 -24 0 -10 -6 -21 -12 -24 -10 -5 -10 -7 0 -12 6 -3 12 -14 12 -24 0 -10 -6 -21 -12 -24 -10 -5 -10 -7 0 -12 6 -3 12 -14 12 -25 0 -16 -7 -19 -40 -19 -33 0 -40 3 -40 19 0 11 6 22 13 25 10 5 10 7 0 12 -7 3 -13 14 -13 24 0 10 6 21 13 24 10 5 10 7 0 12 -7 3 -13 14 -13 24 0 10 6 21 13 24 10 5 10 7 0 12 -7 3 -13 14 -13 24 0 10 6 21 13 24 10 5 10 7 0 12 -7 3 -13 14 -13 25 0 16 7 19 40 19 33 0 40 -3 40 -19z m170 -121 l0 -140 -40 0 -40 0 0 140 0 140 40 0 40 0 0 -140z m-340 -50 l0 -90 -40 0 -40 0 0 90 0 90 40 0 40 0 0 -90z m-186 14 c19 -7 21 -40 4 -48 -10 -5 -10 -7 0 -12 6 -3 12 -14 12 -25 0 -16 -7 -19 -40 -19 -33 0 -40 3 -40 19 0 11 6 22 13 25 10 5 10 7 0 12 -7 3 -13 14 -13 24 0 25 31 37 64 24z" fill="#feffff"/>
<path d="M470 380 c0 -5 5 -10 10 -10 6 0 10 5 10 10 0 6 -4 10 -10 10 -5 0 -10 -4 -10 -10z" fill="#feffff"/>
<path d="M470 320 c0 -5 5 -10 10 -10 6 0 10 5 10 10 0 6 -4 10 -10 10 -5 0 -10 -4 -10 -10z" fill="#feffff"/>
<path d="M470 260 c0 -5 5 -10 10 -10 6 0 10 5 10 10 0 6 -4 10 -10 10 -5 0 -10 -4 -10 -10z" fill="#feffff"/>
<path d="M470 200 c0 -5 5 -10 10 -10 6 0 10 5 10 10 0 6 -4 10 -10 10 -5 0 -10 -4 -10 -10z" fill="#feffff"/>
<path d="M470 140 c0 -5 5 -10 10 -10 6 0 10 5 10 10 0 6 -4 10 -10 10 -5 0 -10 -4 -10 -10z" fill="#feffff"/>
<path d="M130 200 c0 -5 5 -10 10 -10 6 0 10 5 10 10 0 6 -4 10 -10 10 -5 0 -10 -4 -10 -10z" fill="#feffff"/>
<path d="M130 140 c0 -5 5 -10 10 -10 6 0 10 5 10 10 0 6 -4 10 -10 10 -5 0 -10 -4 -10 -10z" fill="#feffff"/>
</g>
</svg>