<svg xmlns="http://www.w3.org/2000/svg" version="1.0" width="64.000000pt" height="64.000000pt" viewBox="-3 -3 70 70" preserveAspectRatio="xMidYMid meet"><g id="deeditor_bgCarrier" stroke-width="0">
    <rect id="dee_c_e" x="-3" y="-3" width="70" height="70" rx="0" fill="#991b1b" strokewidth="0"/>
  </g>

<g transform="translate(0.000000,64.000000) scale(0.100000,-0.100000)" fill="#fffcfc" stroke="none">
<path d="M261 545 c-40 -41 -71 -80 -69 -87 3 -7 16 -18 29 -25 14 -7 32 -24 39 -39 14 -25 13 -27 -51 -87 -35 -34 -97 -93 -137 -131 -76 -72 -87 -99 -54 -129 10 -10 29 -17 42 -17 24 0 32 7 184 173 49 53 94 97 100 97 16 -1 51 -32 65 -58 6 -12 17 -22 24 -22 19 0 157 143 157 163 0 9 -10 19 -23 22 -13 4 -31 19 -40 35 -21 35 -104 118 -126 125 -9 3 -21 15 -26 27 -17 40 -39 31 -114 -47z m99 47 c0 -14 -136 -143 -143 -135 -4 4 23 38 60 75 64 64 83 78 83 60z m51 -59 c21 -16 39 -31 39 -34 0 -3 18 -25 40 -48 22 -23 40 -47 40 -54 0 -7 -24 -37 -54 -66 l-55 -54 -28 18 c-33 22 -101 89 -125 124 -18 26 -18 26 39 83 32 32 59 58 61 58 2 0 21 -12 43 -27z m91 -226 c-42 -42 -72 -65 -72 -56 0 19 128 144 137 135 4 -4 -25 -39 -65 -79z m-192 28 c14 -16 17 -11 -148 -192 -47 -51 -93 -93 -102 -93 -22 0 -43 24 -38 44 3 14 257 255 269 256 4 0 12 -7 19 -15z" fill="#fffcfc"/>
<path d="M412 459 c2 -7 10 -15 17 -17 8 -3 12 1 9 9 -2 7 -10 15 -17 17 -8 3 -12 -1 -9 -9z" fill="#fffcfc"/>
<path d="M380 427 c0 -19 16 -31 24 -18 3 5 -1 14 -9 21 -12 10 -15 10 -15 -3z" fill="#fffcfc"/>
<path d="M342 389 c2 -7 10 -15 17 -17 8 -3 12 1 9 9 -2 7 -10 15 -17 17 -8 3 -12 -1 -9 -9z" fill="#fffcfc"/>
<path d="M299 102 c-13 -10 -32 -22 -42 -25 -12 -5 -17 -15 -15 -29 3 -23 3 -23 198 -23 195 0 195 0 198 23 2 14 -3 24 -15 29 -10 3 -29 15 -42 25 -35 27 -247 27 -282 0z m266 -12 c4 -6 -40 -10 -125 -10 -85 0 -129 4 -125 10 4 6 57 10 125 10 68 0 121 -4 125 -10z m55 -40 c0 -6 -67 -10 -180 -10 -113 0 -180 4 -180 10 0 6 67 10 180 10 113 0 180 -4 180 -10z" fill="#fffcfc"/>
</g>
</svg>