<svg xmlns:dc="http://purl.org/dc/elements/1.1/" xmlns:cc="http://creativecommons.org/ns#" xmlns:rdf="http://www.w3.org/1999/02/22-rdf-syntax-ns#" xmlns:svg="http://www.w3.org/2000/svg" xmlns="http://www.w3.org/2000/svg" version="1.1" id="svg2" viewBox="0 0 399.99999 399.99999" height="112.88889mm" width="112.88889mm">
  <defs id="defs4" fill="#ffffff"/>
  <metadata id="metadata7" fill="#ffffff">
    <rdf:RDF fill="#ffffff">
      <cc:Work rdf:about="" fill="#ffffff">
        <dc:format fill="#ffffff">image/svg+xml</dc:format>
        <dc:type rdf:resource="http://purl.org/dc/dcmitype/StillImage" fill="#ffffff"/>
        <dc:title fill="#ffffff"/>
      </cc:Work>
    </rdf:RDF>
  </metadata>
  <g transform="translate(155.71429,-623.79077)" id="layer1">
    <rect id="rect4138" height="400" width="400" x="-155.71429" y="623.79077" style="fill:#991b1b;fill-opacity:1"/>
    <path style="fill:#ffffff;fill-opacity:1;stroke:#ffffff;stroke-width:2.99651527;stroke-linecap:round;stroke-linejoin:round;stroke-miterlimit:4;stroke-dasharray:none;stroke-opacity:1" id="path4467" d="m 160.70381,867.71482 c -7.78237,10.60794 -16.84127,19.88383 -38.06055,16.47065 -9.3529,10.35032 -17.72348,12.84203 -25.596279,11.35138 4.867199,4.89686 12.171549,3.90388 20.588319,0.22258 -5.54712,6.69875 -11.81375,12.82946 -22.925362,15.13519 3.312626,6.01828 20.172122,5.96892 32.162272,-11.68526 -9.39161,20.28071 -6.35917,36.51007 -2.33704,52.41673 0.31135,-20.01317 3.10966,-34.95259 12.57555,-49.30066 -1.26022,5.40543 -1.85028,11.92774 -2.22576,18.8077 2.49451,-8.19897 5.04523,-16.17317 8.12402,-22.03506 -0.6416,6.55722 0.0746,14.20067 0.89032,21.92377 0.89927,-9.1789 1.54726,-18.21001 7.34502,-30.27037 -3.20763,0.82794 -5.65613,0.91171 -7.6789,-0.33387 12.1471,-8.31148 14.91826,-15.55918 17.13839,-22.70278 z m -37.90537,-78.04718 c 58.17848,0.62355 64.93101,92.37812 25.4964,100.09699 9.58925,-8.7257 14.5267,-17.92735 15.42374,-27.54241 -24.18684,33.91383 -52.39688,17.20198 -53.98312,11.33173 51.02883,12.26254 51.18347,-43.66376 24.70948,-64.21317 -2.86782,-7.13966 -8.28851,-10.1545 -14.16466,-12.43343 4.7092,-0.34125 11.10615,0.87472 21.71915,5.98064 -4.96233,-8.7208 -11.96528,-11.3197 -19.20099,-13.22035 z m -11.16692,-0.87268 c 13.84831,-6.10531 40.09563,-6.8774 54.21217,2.619 24.84346,16.71257 30.43538,41.85379 25.08543,86.15604 -2.78481,23.06044 -15.73553,29.5329 -12.78673,84.44316 -8.33074,-17.12196 -11.70889,-34.34672 -7.49883,-50.21461 -8.50474,7.31581 -15.28944,16.47451 -17.94194,30.06058 -13.54746,-20.14526 24.76569,-44.38457 24.83909,-81.26581 -0.27288,-36.37253 -19.72766,-76.15953 -65.90919,-71.79836 z m -1.39689,-16.56537 c 2.14424,-1.74364 4.28352,-3.50117 6.06521,-6.25996 2.00108,-0.33501 6.89019,-0.13576 10.93405,0.47298 -0.22573,1.54359 -1.72387,2.87512 -2.75438,4.28458 -4.6996,0.98774 -9.47301,1.23727 -14.24488,1.5024 z m 13.6328,-16.58194 c 3.3383,-3.39219 4.97002,-7.54494 7.17808,-11.64352 2.33439,-0.27882 6.46351,-0.39399 9.51514,-0.0417 -2.17393,4.2475 -5.64785,8.495 -9.12563,12.7425 -2.01119,-0.40156 -5.64251,-1.21706 -7.56759,-1.05724 z M 63.464214,801.7863 c 4.631717,-6.26147 9.6381,-11.67994 15.108977,-16.0533 1.059257,-11.08691 13.28376,-28.19353 17.752847,-34.34907 -14.561936,11.28221 -29.27859,32.64833 -32.861824,50.40237 z m 31.245724,-81.86214 c 17.359552,-6.8215 32.525372,-7.06179 46.629722,-4.11767 16.76163,-7.33745 26.75432,-16.11346 35.61221,-24.14952 -12.94363,7.16492 -25.18398,6.72123 -36.50251,10.68366 15.07018,-11.19042 25.69354,-24.0556 28.2672,-39.95245 -5.32171,6.89901 -10.28259,14.44752 -16.58195,19.58672 0.75391,-0.94436 1.01203,-2.50255 1.22418,-4.11767 -11.28092,13.34076 -34.26731,24.25521 -58.648852,42.06693 z M -0.83490668,703.49722 c 4.75967998,-1.06838 -1.40188302,-5.95042 -1.15263402,-1.15262 -1.695934,-0.67735 -0.705317,-2.80213 -1.550074,-3.0803 -2.647414,-0.53616 -3.804634,0.86486 -3.616877,4.01433 -1.345183,0.79485 -1.44042,1.40035 -0.178852,1.92767 -0.0174,1.34419 0.481097,1.92817 1.470592,1.78855 0.205483,2.2038 0.927145,3.84631 2.523865,4.41179 0.351086,0.17885 -0.232602,2.67013 0.09936,3.13992 1.994074,-0.31062 3.35581702,-1.76738 3.65661402,-5.14709 2.03147198,1.10728 4.97849198,1.63474 5.42529498,-0.67568 -2.478395,-0.0958 -3.824529,-0.59684 -4.325743,-1.52396 -0.69906898,-1.29308 0.665305,-2.55623 0.125425,-3.39219 -1.00266798,0.67195 -2.42696498,0.48809 -2.47697098,-0.31042 z M -10.897481,716.81794 c 6.4589063,0.31499 8.6277093,-3.7629 3.5411743,-7.64443 -1.374848,0.71753 -1.787974,1.40808 -4.0450713,1.70041 -0.9924,0.12853 -3.196457,-0.20806 -4.554917,0.15449 -1.017189,0.30523 -1.994152,0.8414 -3.119597,1.96732 0.774282,1.03691 2.412891,1.14527 3.593888,1.65943 1.752575,0.763 3.783609,0.18855 6.3270093,-0.81629 -0.03403,2.04858 -0.8795233,1.31304 -1.7424863,2.97907 z m 59.792323,225.19277 c -0.58374,1.46789 -1.68462,3.51877 -2.485106,4.84476 3.993275,0.7951 12.873858,0.31603 13.551266,-2.07084 -5.560466,-0.4515 -8.681108,-1.21295 -11.06616,-2.77392 z m -1.965908,-30.18845 c -0.05983,-1.2e-4 -0.11838,0.004 -0.177052,0.01 -1.139331,4.98334 -6.684506,23.44765 -10.643177,30.9557 -3.559157,6.70742 -5.921468,6.56322 -7.643023,9.87593 -0.333025,0.83021 -2.114022,3.94921 -2.193557,4.82975 -0.3507,1.25047 -0.821468,3.68513 -4.564157,3.71823 -5.952394,0.009 -14.5214147,-0.17962 -16.0237977,1.84928 -1.086925,0.33267 -2.302671,0.5117 -2.734568,0.4033 -1.276835,-0.32046 -4.125232,0.68595 -5.046163,1.78042 -0.836717,0.99437 -1.097443,2.65728 -0.452477,2.87228 0.261574,0.0872 0.24558,0.4364 -0.05906,1.27875 -0.343989,1.48251 -0.192514,3.50555 1.032839,4.45595 0.420146,-0.5032 0.433672,-0.989 0.62954602,-1.76072 0.270172,-1.06467 1.265932,-2.02407 1.937803,-2.00666 0.0636,0.0252 -0.09092,0.39336 -0.216411,0.7279 -0.261446,1.13184 0.65806198,1.34982 1.41647098,1.11153 0.77376,-0.24929 1.704806,-0.90945 4.259229,-2.50833 1.104745,-0.69148 2.441065,-1.50606 4.0821767,-0.81643 3.993737,1.48615 10.960235,-2.41046 14.263038,-1.63288 -1.354157,2.69207 -4.763923,5.77459 -5.203543,6.09859 -4.102543,2.3749 -10.1710037,4.9531 -5.823249,9.935 0.139834,2.3485 1.858989,3.9197 3.796912,4.2494 -0.307466,-2.3538 -0.357086,-3.827 0.885291,-4.7806 -0.0264,0.2132 -0.538954,0.767 0.747583,0.8263 2.453691,0.2088 2.219134,-2.4946 2.24274,-4.9183 5.26464,-3.3107 6.91824,-8.04798 10.761206,-12.48257 0.274645,-0.26027 0.941297,0.0915 0.580363,0.50167 -0.757278,1.15264 -2.034918,3.17025 -1.711569,4.69204 0.460371,0.005 1.873346,-0.025 2.203389,0.53117 0.797785,-1.07492 2.102734,-2.41646 4.151048,-2.29191 0.285017,-0.009 0.95784,-0.51926 1.495157,-1.13122 0.764383,-0.87056 0.983657,-1.40437 0.983657,-2.4493 0,-1.18971 -0.394663,-2.09247 -0.87546,-2.47881 -0.07963,-0.13864 0.02734,-0.4049 0.304946,-0.50167 2.384563,1.09602 3.744677,3.52382 5.105177,5.95112 0.488991,3.05819 2.254997,5.06958 4.98714,5.67568 0.732111,0.1624 1.387114,-0.2207 1.711569,-0.059 0.62976,1.1377 1.487108,2.7881 1.327937,4.5347 2.145857,-0.4273 3.112817,-2.8718 2.380457,-4.7413 -0.284872,-0.6817 -0.3528,-1.2872 -0.1869,-1.5836 0.356031,-0.63621 -0.170383,-2.91149 -0.84594,-3.6592 -0.567172,-0.62773 -3.2688,-2.0952 -3.855952,-2.0952 -4.012465,-2.04503 -5.271865,-6.76783 -7.279054,-10.73169 -0.156017,-0.27682 -0.854777,0.10537 -0.993497,0.42296 -0.365451,0.90563 -0.167837,-1.29558 0.236074,-2.62635 3.847355,-9.8979 10.295126,-20.05301 15.600815,-29.29332 2.161662,-2.21329 6.441325,-3.27256 6.079002,-6.82659 -3.894402,-0.84915 -6.257837,-0.90993 -8.292231,0.0197 -1.772349,0.80987 -3.045154,3.35327 -4.308429,6.08885 0.622989,-2.26287 2.593998,-5.77392 1.750912,-7.31842 -1.589623,-2.06372 -3.969523,-4.69808 -5.823249,-4.70188 z m -61.596515,-33.2184 c -0.468428,-0.0803 -1.794154,0.0963 -3.108463,0.0496 -2.746354,-0.0979 -4.134154,-0.1409 -4.900603,-0.069 -9.645711,-1.30492 -25.245291,-5.28195 -34.658965,-8.09055 -1.632806,-0.54733 -3.180249,-1.18086 -4.567321,-1.96232 -1.053154,-0.62052 -2.596217,-1.38317 -3.43296,-1.69188 -0.6774,-0.24991 -1.097957,-0.38418 -1.534508,-0.40331 l 0,10e-6 c -0.436586,-0.0192 -0.96846,-0.11402 -1.613203,0.2656 -0.89448,0.52667 -2.53008,0.97564 -3.629683,0.3541 -2.76876,-0.10743 -5.666819,1.60214 -7.397119,2.96082 -3.30113,2.5206 -5.87828,3.54991 -13.73187,5.47898 -3.87031,0.79437 -9.209124,2.84832 -10.525134,4.81008 -0.67298,0.9608 -0.61714,2.20508 0.14755,3.17721 0.52192,0.43108 1.14344,1.2438 0.9935,1.84928 0.43715,1.2666 1.84266,3.07883 2.38045,3.07884 0.257104,10e-6 0.393464,-0.49047 0.393464,-1.4263 0,-1.88127 0.71249,-3.28912 1.55419,-3.06901 0.55501,0.14514 2.06142,-0.59247 5.64618,-2.76408 0.45326,-0.27458 1.62768,-0.59256 2.61654,-0.70824 3.3821,-0.39566 8.47132,-2.34411 12.11865,-4.63302 0.38166,-0.23952 0.79466,-0.33656 0.9148,-0.2164 0.34808,0.34806 -1.38381,2.66066 -4.31825,5.7544 -4.18749,4.17423 -2.97022,4.81677 -4.5445,5.1937 -2.26531,1.55858 -2.87602,3.46215 -1.86895,5.87245 0.49089,1.17489 1.06947,1.69385 2.99033,2.72473 0.60592,0.32518 1.1837,0.73056 1.28858,0.89513 0.22295,0.34973 2.80343,0.74783 2.80343,0.4328 0,-0.11729 -0.35412,-0.87886 -0.78693,-1.69189 -0.86014,-1.6158 -1.00626,-2.58147 -0.39346,-2.59686 0.2164,-0.005 0.62283,-0.31921 0.90496,-0.70823 0.53625,-0.73941 2.16405,-4.60953 2.16405,-5.14453 0,-0.26916 1.15361,-1.72933 3.58051,-4.52483 0.375741,-0.43281 1.298738,-1.67221 2.055852,-2.75423 1.445649,-2.16151 2.395354,-2.68008 1.839437,-1.24925 -2.37846,4.30119 7.86504,2.30043 8.666032,-0.30493 1.199314,1.78156 0.990377,5.4063 1.01316,6.98396 0.06763,6.0487 1.1469,8.41814 4.328091,9.47262 1.863566,0.61772 2.415189,1.15982 2.429632,2.40998 0.0069,0.56658 0.1734,0.86561 0.491837,0.86561 0.668194,0 2.030134,-1.41379 2.02632,-2.10503 -0.0043,-0.83581 -1.485077,-3.87561 -1.888612,-3.87561 -0.19128,0 -0.2463,-0.15268 -0.127885,-0.34428 0.150085,-0.24285 0.293365,-0.21901 0.481988,0.0787 0.220483,0.3479 0.277012,0.33545 0.275434,-0.0492 -0.0034,-0.69381 -1.10898,-2.99712 -1.996834,-4.17072 -1.165294,-1.54038 -1.560488,-3.4597 -1.308257,-6.35442 0.120026,-1.37712 0.414351,-2.78852 0.659057,-3.13786 0.308194,-0.44001 0.404872,-0.56952 0.4434,-0.33721 0.11868,0.79307 0.233692,1.63778 0.41238,2.56026 0.07869,0.0787 2.094677,0.62986 4.47564,1.22957 2.683252,0.67586 3.8937,0.76804 4.705783,0.89471 0.816986,-0.0933 1.78788,-0.31721 2.301403,-0.39275 0.326126,0.41841 0.499851,0.99564 0.685011,1.41617 0.596152,1.34768 1.593532,7.35528 1.593532,9.62017 l 0,0.97383 0.737734,-0.79677 c 0.89418,-0.96479 2.216537,-7.2288 2.046026,-9.68902 -0.05983,-0.86302 -0.06926,-1.57396 -0.01963,-1.57384 0.619089,0.98565 1.267012,1.9374 1.292109,3.19207 6.28176,1.31706 13.508588,4.14013 19.935214,6.76254 2.900674,1.46987 10.4397263,4.04256 11.1054943,3.78708 0.613363,-0.23537 0.204875,-1.45892 -0.85578,-2.55752 -0.955671,-0.98982 -1.893788,-3.62223 -1.75092,-4.90845 0.0582,-0.52392 -0.06806,-0.76387 -0.413134,-0.76725 -0.276711,-0.003 -1.0409403,-0.40845 -1.6918803,-0.90496 -0.766226,-0.63968 -2.971328,-5.30597 -3.432848,-7.17113 z m 206.409191,-14.0562 c -0.0644,0.0237 -0.1086,0.19379 -0.0984,0.44265 0.0152,0.36669 0.0963,0.438 0.19674,0.18688 0.0909,-0.22722 0.0751,-0.49542 -0.0296,-0.60002 -0.0261,-0.0261 -0.0474,-0.0374 -0.0689,-0.0295 z M 13.306125,880.51243 9.3961563,877.32317 c -1.981577,-3.17091 -3.737837,-7.11518 -5.856163,-9.53225 -0.595097,-0.35112 -3.30943698,-0.20028 -4.14260598,-0.3218 -2.43174802,-0.35466 -6.65621902,-2.00743 -9.50213132,-3.70838 -1.468928,-0.87797 -2.340514,-1.30719 -2.891948,-1.2886 l -1.89e-4,0 c -0.551417,0.0187 -0.788691,0.49194 -0.993471,1.42631 -0.348995,1.59204 -0.0034,3.44006 1.514828,8.06599 0.402797,1.85532 2.5761263,4.81457 0.255746,5.57733 -1.352846,0.60819 -1.051174,2.40448 1.052511,5.30193 1.2986063,1.39566 2.3203203,1.91309 3.5313263,2.57717 1.036749,0.53611 1.189114,1.26969 0.609874,2.9313 -0.457388,1.31203 0.354652,3.005 1.937786,4.05267 0.649629,0.42991 1.342843,1.1759 1.544366,1.66239 0.528283,1.27536 1.849619,2.39883 3.42312802,2.92147 2.09885098,0.69711 3.90179998,0.18028 8.32174298,-2.40997 1.519457,-0.89047 4.3812507,-1.60332 7.6233257,-1.89846 3.262158,-0.29698 5.446595,-0.83137 5.656046,-1.37712 -0.05991,-4.99016 -4.947574,-8.48365 -8.174203,-10.79072 z m 50.252263,-31.12011 c -0.285017,2.4597 -2.313986,10.86068 -3.988029,11.97393 0.170366,0.35991 1.17204,0.42549 1.750912,-0.0899 0.473074,-0.42122 1.672585,-0.93922 2.279263,-0.71245 4.647565,-0.0165 1.199305,-10.81784 -0.04217,-11.17154 z m -3.364072,22.07604 c 1.469015,-0.40944 2.784403,-1.28862 3.530306,-1.9601 1.292254,-1.16336 1.175974,-4.05796 1.213672,-6.93773 -2.485552,0.0795 -6.795918,1.03231 -6.957652,-0.21451 -2.142814,1.70778 -5.666246,3.71604 -7.641797,3.43746 1.248677,-1.02034 3.173829,-4.8685 3.296606,-6.06771 -4.0488,3.92663 -9.251597,7.63839 -14.321452,6.76956 -1.234534,-0.2469 -1.25484,-0.72691 -0.04911,-1.53451 1.213843,-0.8131 1.45764,-1.41646 0.560657,-1.41646 -0.573403,0 -0.247886,-0.2681 1.377129,-2.1247 3.427311,-3.91573 4.916554,-6.5617 4.891603,-7.92125 -9.491923,1.14229 -18.858386,-1.49295 -28.585054,-5.57596 -7.5257927,3.36907 -23.8591637,-0.85939 -25.7522407,-1.16083 2.485166,5.86946 26.7729347,11.17151 36.1901147,13.287 -1.548994,0.74656 -9.6909,0.0163 -10.790392,-0.29436 1.083018,3.30324 10.961298,5.42489 12.563915,7.42962 4.469554,4.20492 18.877825,5.43823 30.473751,4.28448 z m 8.146818,16.37473 c -5.080295,3.22315 -7.945312,5.89668 -13.17048,5.28969 2.065062,-1.2706 8.858027,-7.24776 9.51825,-9.45457 -1.859674,0.0718 -7.351908,0.775 -8.364253,0.33868 0.764323,-0.28177 3.3171,-0.58021 3.652834,-0.75596 1.226854,-0.83286 8.713611,-7.15083 6.881023,-12.37009 -22.3479,-2.74515 -27.845794,0.83084 -36.034954,-1.43282 -7.308763,2.98554 -14.903974,-1.51819 -20.222478,-1.02488 -1.3827767,0.23362 -6.3979197,-4.64984 -6.3979197,-3.92688 0,0.67845 5.783597,10.68337 7.9914507,12.33716 8.742867,6.49852 10.741913,13.16655 16.535255,17.14516 7.314034,4.22728 15.384703,8.2478 17.627212,14.37122 1.283442,1.99258 5.40168,5.0497 7.808031,6.76144 1.308583,0.54694 2.792194,0.50992 4.222123,0.0356 1.905968,-0.31364 2.889394,0.33166 4.741226,0.93447 3.792282,-1.17782 5.107508,-6.01648 4.278891,-9.13817 -0.948034,-2.47696 -2.845431,-5.99903 -1.652537,-7.22006 2.210906,-2.17332 3.74736,-14.83737 4.005206,-17.09257 z M 30.618491,841.7465 c -0.04903,2e-5 -0.08854,0.01 -0.118037,0.0197 -2.91588,2.06837 -13.016066,2.48137 -15.32916,3.85403 6.517431,3.26281 19.356171,7.86468 29.556822,6.41961 2.057743,-1.87562 2.93604,-5.29946 2.95824,-7.42103 -7.643014,0.0698 -15.942592,-6.75406 -18.078018,-7.92305 z m 49.124143,-2.29721 c 1.371197,5.2801 2.315271,11.03037 4.768071,15.6931 3.220757,5.97964 13.851013,16.14141 18.730355,14.21648 -13.527806,-10.9235 -17.275038,-25.42045 -20.995629,-30.69006 -0.74586,0.38725 -10.153955,-3.34918 -2.502797,0.78048 z m -31.280589,-1.24397 c -1.027551,1.38241 -1.992189,2.78781 -2.686491,4.21166 0.467014,0.0202 1.878694,-0.11976 2.363502,-0.2166 0.178415,-1.42269 0.240018,-2.53484 0.322989,-3.99506 z m -11.815911,-2.24313 c -0.843043,0.98798 -3.077014,2.98705 -4.418846,4.34796 2.900708,2.11901 6.897814,2.06517 10.037717,1.98719 0.790414,-1.21984 1.495911,-5.20004 1.34742,-6.14966 -2.678554,0.0784 -4.752471,-0.0774 -6.966291,-0.18549 z m 5.618871,-10.68213 c -2.38656,2.70909 -3.971357,3.46745 -6.063874,4.84278 -0.634655,0.52816 -0.313363,0.81257 0.838525,0.73353 0.863143,-0.0472 1.691469,-0.26976 2.300315,-0.52642 0.02006,1.5741 -0.9285,3.28338 -1.32438,4.48176 2.133771,0.32729 4.166554,0.28553 5.134705,-0.0591 0.374872,-2.15379 1.002815,-8.04461 -0.885291,-9.47263 z m 31.00488,0 c 1.507054,2.63553 2.88732,5.37352 4.249406,8.24305 1.742486,3.91926 3.750831,3.90443 5.911791,1.7214 4.497832,-4.855 14.121082,-1.81164 13.974099,7.8087 -0.01646,0.6339 -2.205,2.26463 -3.411343,2.72246 6.453472,2.85859 9.307122,-4.02178 12.317122,-7.41296 1.31811,4.6576 -0.64612,7.35384 -2.49059,10.46331 5.88443,-1.97171 6.67951,-7.90582 8.1466,-11.39779 4.91103,14.60298 -1.05299,16.89514 -6.52858,19.12257 10.25383,2.77897 18.66341,-5.00112 20.9192,-7.87145 -1.38563,5.36749 -3.88098,10.10467 -8.11941,12.5225 6.69326,0.0685 12.92076,-9.45078 13.02,-11.13501 1.60933,8.12452 3.43716,16.88935 -2.17558,22.32059 -0.74692,0.68848 -1.35743,1.31379 -1.35743,1.39679 12.09051,-3.75268 16.82799,-3.83716 13.11275,-17.13655 1.08155,1.29129 3.39982,9.43318 3.71524,13.29939 13.18215,-13.69665 1.30576,-21.73863 -0.82388,-28.59403 2.99404,3.21214 4.66045,8.9231 4.96791,10.38871 3.49835,-15.01375 -5.27919,-35.30982 -17.09087,-41.90457 -18.11595,-10.11455 -45.463529,-3.70631 -58.336435,15.44289 z m 14.146209,19.57449 c -1.146926,-1.64497 -2.664703,-5.1678 -3.914966,-7.59383 5.019429,-3.66958 9.17421,-2.3722 12.13833,2.30175 0.423754,0.91511 -5.826801,2.71256 -8.223364,5.29208 z m 17.006236,-53.48116 c -10.069606,2.80062 -24.417599,9.09309 -36.188768,26.44072 0.454329,0.86032 3.104606,4.33428 3.839529,5.73962 10.997134,-16.22409 38.958009,-25.74495 59.845699,-16.15943 -2.3426,-5.1009 -15.33944,-10.62929 -17.07221,-11.03714 8.63254,-2.9023 16.32772,0.68059 22.09447,2.58947 -8.99004,-8.04628 -22.21871,-10.53424 -32.51872,-7.57324 z m -90.180283,-6.71868 c 14.608561,5.10054 33.183498,24.26218 22.199701,43.43862 2.930348,-0.0669 4.973246,-4.19895 6.400526,-6.68521 2.553042,5.07812 2.841351,15.62136 1.162414,20.17959 3.171394,-1.6597 4.219131,-5.4387 5.366263,-8.47406 0.353365,-0.004 0.353065,8.5846 -0.220363,13.27572 -0.434529,3.46626 -2.370694,13.89604 -8.330683,18.30841 4.256829,2.42828 12.411986,-8.04273 14.163797,-9.47518 0.07603,2.98192 -0.323228,5.23503 -1.327954,7.79056 3.986803,2.34929 9.622963,-15.04578 9.679191,-20.42072 8.640112,21.51419 1.667152,44.9556 -4.423757,49.0132 4.940623,0.72509 10.866377,-9.62843 13.101326,-12.47959 0.621146,4.53881 -0.934937,8.53702 -2.022686,12.00173 4.761343,-1.36554 5.969349,-14.14191 6.344623,-17.74835 0.524366,11.59588 0.36234,33.68189 6.014614,43.75458 -2.863765,-16.91987 0.626358,-24.06441 0.789172,-37.40455 1.570526,3.68403 7.334811,9.48191 9.070984,9.91179 -3.905036,-8.01295 -8.263967,-15.88696 -8.113624,-20.98263 9.422978,14.94808 17.463789,13.07267 17.159649,10.79271 -7.416536,-0.1634 -13.472846,-13.90157 -16.614275,-19.21208 -3.2085,-8.25239 -4.292288,-21.03654 -17.843546,-40.54635 -1.466228,-2.87157 -9.584674,-11.49077 -12.645883,-13.75014 -1.142425,-0.8432 -1.471868,-0.73989 -2.738314,-2.23893 -5.85618,-9.3521 -28.001254,-21.48604 -37.171175,-19.04912 z m -18.8975137,0.25605 c -0.207797,0.18453 -0.330437,0.89039 -0.716348,0.84224 -1.351997,-0.33809 -3.715089,0.0788 -4.585552,1.26279 -0.3181623,1.52235 1.094203,1.54651 1.77864,2.34338 -0.560657,3.85484 -9.5184433,5.21046 -10.8971653,5.41767 -7.212103,1.04359 -10.473172,3.03769 -13.002232,5.55877 -3.260666,3.25036 -3.570266,11.01389 -0.464023,14.82262 1.814023,3.24359 5.183135,6.24575 7.392797,8.96741 -0.228702,0.43077 -1.18224,1.15131 -0.880002,1.43906 12.754637,16.08586 21.5812203,21.46265 32.5679143,23.20511 2.502445,0.31933 8.2543107,-0.34171 8.3099997,-2.10138 -1.522603,0.0933 -6.4545257,-2.46848 -6.4307227,-3.88722 7.5306687,4.05668 15.1254607,1.93574 20.2332427,-2.13781 -3.71844,-0.10938 -8.024117,-1.92952 -8.26272,-2.97909 9.149212,1.83655 13.432723,-0.0549 17.134646,-5.30706 -1.421417,0.12336 -5.207888,0.074 -5.365354,-0.39296 4.963705,-5.53402 6.627497,-13.41827 5.789014,-19.65867 -0.660746,-4.28463 -3.90306,-10.80873 -7.377428,-14.84339 -2.584655,-3.1702 -15.746161,-13.44902 -18.134358,-12.11248 0.0816,0.70488 0.26394,1.76685 -0.259637,1.87178 -3.3604627,-3.75403 -12.51354068,-5.28282 -16.8307117,-2.31077 z m 64.9699887,24.54742 c 0.3117,0.63978 6.141686,5.98031 6.650126,6.41813 11.3493,-14.69162 22.995977,-24.68723 41.421812,-27.39487 0.70603,-0.11013 1.87772,-0.88937 2.84279,-1.54434 8.11854,-5.03809 13.71052,-2.22638 21.42805,-1.82776 1.40672,0.0875 7.64873,-3.49034 9.74515,-3.29347 8.89629,0.83549 18.60651,4.91536 23.97064,6.76392 -34.58576,-30.98046 -94.287108,-9.86788 -106.058568,20.87839 z M 10.146679,757.95655 c -5.9650027,4.56902 -13.2466457,12.75178 -15.3965397,19.17207 -3.062743,-4.65331 -1.04742,-8.31066 0.673089,-11.35984 -5.7075093,1.68307 -8.5524603,9.03985 -7.0626603,14.44009 1.208477,1.58417 2.7966943,2.92583 4.4742433,4.06954 5.137713,-2.80465 17.8085637,-1.53585 22.1078297,0.70891 1.543449,-0.24779 -3.347725,-2.38115 -2.167294,-2.25768 -0.675222,-2.01467 -3.5635537,-2.25316 -4.4420137,-4.51625 0.790569,-0.22371 2.2392257,0.74002 3.4203337,0.31399 -3.0884817,-5.27037 -1.112245,-14.90759 -1.606988,-20.57083 z m 71.267889,26.87552 c 7.055949,-4.88204 16.690331,-7.56529 26.802032,-9.91488 3.04331,-2.23865 2.65291,-5.38729 5.65867,-8.69592 -1.33823,-0.83137 -2.88011,-0.28032 -4.30756,-0.87888 16.0796,-3.09405 39.85423,3.99664 47.30652,10.43983 -7.55428,-14.11274 -29.31751,-19.83096 -41.02515,-19.0743 1.29423,-0.80127 2.78102,-1.11346 5.39846,-1.2729 3.32803,-3.5415 6.10284,-7.30905 7.95563,-11.4183 -21.97049,0.4611 -47.319522,13.94713 -47.788602,40.81535 z M -16.68173,838.454 c -1.864791,-2.32161 -3.991431,-3.41454 -5.90298,-6.01572 -1.616974,-1.89727 -4.494317,-4.80489 -4.557162,-6.82378 0,-0.65213 -1.42968,-3.23362 -2.350929,-4.24939 -1.213886,-1.33845 -4.142563,-5.43099 -4.977309,-6.95446 -0.436645,-0.79689 -1.046082,-2.45789 -1.347634,-3.69855 -0.540866,-2.22532 -0.504634,-3.02224 0.195352,-5.42276 1.05366,-3.61357 2.37096,-5.21585 3.97536,-7.01068 2.100437,-2.34971 3.030874,-3.0035 8.548002,-3.56083 2.160412,-0.21824 4.307383,-0.65043 5.056003,-0.88529 2.301789,-0.95146 5.4819,-1.88616 6.864506,-3.68309 -1.203823,0.26133 -3.405017,0.12153 -4.02324,-0.0794 2.796094,-1.61119 6.3726863,-4.31973 3.503306,-7.46106 -0.709869,-0.75283 -1.491274,-1.37938 -1.610392,-1.68347 -0.319671,-1.6242 1.807646,-7.57152 1.151118,-8.9066 -0.662992,1.38817 -3.573515,7.13706 -4.117526,8.54405 l -0.420172,-1.69188 c -0.252137,-0.60594 -0.522051,-2.31567 -0.609874,-3.80675 -0.223989,-3.80362 0.466963,-6.63929 2.764089,-11.27273 1.917051,-3.81905 2.694548,-5.14826 6.0860313,-8.73488 -4.2985463,1.28493 -8.2314433,1.5476 -12.2830713,0.66889 -1.360963,-0.31515 -3.108455,-0.83363 -3.885463,-1.16071 -1.668943,-0.70252 -4.682212,-2.46928 -6.017177,-3.84188 7.232511,-0.62293 33.1548683,-5.65448 37.0582883,-9.88589 -2.305997,-0.12168 -23.0497283,4.18628 -25.0421913,2.78949 4.669731,-1.31557 14.1371743,-5.5623 15.4842433,-9.82271 -1.539326,0.48181 -2.35344,0.64731 -3.614066,0.81341 -0.88788,0.11233 -2.30496,0.0721 -4.6605603,0.13791 -7.90686,0.1707 -7.893326,-2.09438 -9.701092,-3.16998 -0.251914,0 -2.378802,0.97592 -4.510774,2.07692 -14.132691,7.29851 -21.015591,12.23939 -25.270148,18.14849 -4.712675,7.2647 -5.689955,13.55609 -5.201486,18.58849 -1.201123,2.63324 -2.023337,6.17339 -2.815329,9.79986 -2.866894,10.27421 -2.830551,16.25745 0.1377,22.27984 0.383957,0.77907 0.9339,2.13628 1.219732,3.00999 0.285857,0.87373 1.164051,2.71514 1.957474,4.09202 0.79344,1.37688 2.06592,3.61424 2.823111,4.96748 1.61364,2.8839 5.465486,8.17018 6.865929,9.42343 0.53766,0.48115 2.067849,1.51262 3.393626,2.28209 1.325751,0.76945 2.458937,1.51372 2.518165,1.66239 0.05914,0.14863 1.666303,1.49844 3.570669,3.00014 3.950837,3.11548 8.029063,5.32113 12.590811,6.80692 1.746343,0.62049 4.142452,0.81892 4.655949,2.54816 0.513394,-1.08177 1.570809,-1.85246 2.499111,-1.8175 z m -26.828202,-11.26 c 1.603157,10.80604 17.887851,28.10588 35.6207913,35.676 2.645983,0.58145 4.711406,3.59682 8.11596002,3.34065 1.23111398,-0.28725 5.94457698,0.62307 8.20036298,0.47157 3.2302967,0.0233 4.1957307,0.18106 8.9709517,1.43613 5.535643,1.45495 5.297246,1.42815 10.230043,0.95415 1.476531,-0.24082 1.564954,-1.32973 0.7911,-1.77653 -0.651155,-0.49003 -2.194406,-1.19285 -5.827423,-2.80732 -1.990929,-0.88473 -4.257274,-1.89232 -5.036332,-2.24273 -0.946577,-0.42577 -1.781914,-1.1435 -2.518157,-2.17389 -0.739749,-1.03527 -1.463666,-1.66633 -2.203406,-1.90829 C 2.0488563,854.26257 -7.8030317,847.09904 -15.176295,840.40668 -26.419644,842.97976 -40.592184,828.1662 -43.509932,827.194 Z M 81.365402,733.7704 c -0.879403,1.67351 -1.403357,3.04877 -1.887968,3.04557 -0.385355,-0.96065 -0.174086,-1.6243 -0.192849,-2.59925 -14.035029,12.01985 -22.369671,32.90242 -21.159283,42.9143 -0.484706,0.074 -1.196066,-0.0692 -1.294363,-0.27736 -2.296165,8.03145 -1.7763,14.25334 -0.243891,21.11023 -0.734006,1.33239 -2.149594,2.95843 -2.547377,4.63163 1.5558,2.17116 3.142474,3.20096 5.291794,4.57541 1.662574,-3.04212 2.389697,-4.10986 3.274637,-6.06124 2.649129,-20.81329 16.96074,-40.30939 36.524156,-50.53841 10.494262,-5.43581 16.063442,-6.4324 31.526202,-8.26104 2.69275,-0.26377 6.94056,-0.52485 10.54481,-0.1394 5.25521,0.5606 12.50485,2.14286 17.68616,3.86577 23.05131,8.61234 27.15678,27.07317 22.82087,42.85795 17.49743,-14.19633 2.44033,-45.13585 -10.83991,-51.46495 2.05772,-0.18662 6.33447,2.70166 7.8048,3.73528 C 155.33958,702.49131 90.026085,714.28687 81.365402,733.7704 Z M -8.0336207,718.33963 c -2.6137203,-0.31442 -5.5478483,-0.13698 -7.5896063,0.41032 -4.002085,1.23416 -11.169548,3.29948 -9.55134,13.24987 0.737786,-0.6623 3.89892,-1.20596 4.259889,-1.05979 0.02271,-7.86996 8.754943,-8.48233 12.8810573,-12.6004 z m -7.3240373,5.52535 c -2.516683,1.95285 -3.174969,2.78837 -3.550989,4.51499 -0.626863,2.87813 1.225775,4.80846 4.672355,4.87894 2.685617,-0.11709 3.731665,0.97594 5.7347483,0.74758 2.047046,-0.2899 6.549797,-4.68536 6.974108,-6.80692 0.322706,-1.61355 0.04106,-3.62231 -0.487594,-5.87524 -0.235705,-0.96109 -0.370122,-4.54151 -0.21576,-5.71631 -0.575485,0.0574 -1.290025,-0.10463 -1.893497,-0.55662 -1.170154,2.10336 -4.12134,4.30018 -5.665868,5.20355 m 18.345222,-14.72536 c -1.51134,3.29844 -1.391511,6.50146 -5.351091,6.07901 -5.581594,0.75059 -3.90061698,10.51848 -3.77725698,11.86291 0.258968,2.54646 -0.52440902,6.32519 -2.01650602,8.37093 1.160289,0.29997 2.33831102,-0.0761 3.14142002,-0.63261 -1.70429102,7.29909 -14.58589732,6.54631 -17.15645132,7.24437 1.53852,0.17592 7.9231033,5.60943 9.7895573,4.8516 -4.2274633,6.61832 -14.0260713,8.38493 -19.0222633,9.41639 7.968334,3.32748 18.0329323,-0.0402 21.6792773,-1.7549 -3.575211,6.06427 -11.4225083,13.94509 -11.8880053,23.90524 5.067805,-6.90705 8.3820083,-10.43501 14.7057343,-12.70672 0.05177,1.57158 -4.853691,8.8365 -3.691543,11.69707 4.78206002,-11.67962 12.353494,-12.63139 17.8068507,-22.53418 0.171232,-0.30995 0.477686,-0.99217 0.51012,-0.88864 -0.5967,3.21649 -3.5927907,18.65608 -0.870634,22.78657 0.233023,-4.8389 1.242369,-8.96929 3.730415,-11.87681 -0.456917,5.4852 -0.614057,14.20773 2.691154,17.291 -1.528448,-7.10265 -0.01663,-13.50142 1.570663,-16.51377 0.639523,-1.21282 3.739586,-9.58457 4.565572,-12.37221 0.4104,-1.385 0.964551,-4.00545 1.239402,-5.82326 1.074918,-7.3547 3.237678,-19.09939 0.118038,-24.31601 -0.755246,-1.48044 -2.966323,-4.57192 -3.718226,-5.20355 -3.59916,-3.32254 -9.249018,-4.32085 -12.7285207,-7.78073 -0.668314,-0.60202 -1.264526,-1.1017 -1.32792,-1.1017 z m -4.731411,-11.74488 c -4.33510298,0.16932 -8.002294,2.23542 -6.375223,5.4345 5.20704,-2.41794 5.550849,1.37454 5.164534,3.78662 1.068198,1.11936 0.63006,2.66743 0.379835,3.89769 3.94044,0.79733 4.533111,-1.03598 4.893403,-3.75724 6.5184167,7.11466 15.2927317,7.78985 19.1320117,13.94219 -0.455537,-11.87755 -9.481972,-23.4847 -23.1945607,-23.30374 z m -17.5329603,8.7313 c 0.551649,-1.1182 2.969323,-0.78796 2.76948,0.13046 -0.01114,0.30947 0.554186,0.78074 1.3169063,0.51251 0.71154,-0.25024 0.813763,-0.54497 1.070777,-1.67171 0.05331,-1.8387 0.447652,-2.701 1.383454,-3.20268 -0.0246,-2.94324 1.637306,-7.11376 3.342858,-7.87386 -0.267909,1.01427 -2.128603,5.17324 -0.76044,7.05642 1.244065,-4.4971 5.17719302,-4.3914 10.887951,-5.65134 0.847765,-0.22879 6.7615447,-1.97742 10.3528717,-3.7007 -0.8838,0.95381 -4.789621,2.77269 -5.089484,2.94488 -2.1637797,1.24248 -2.0160767,1.84248 0.767255,3.15755 13.93992,2.35095 27.867291,-9.84966 23.666803,-21.42407 -1.351628,-2.23463 -5.090503,-9.82993 -5.075683,-11.3514 -0.01166,-0.69191 -0.671923,-1.05354 -1.445983,-1.33778 -6.242888,-0.95028 -10.727348,5.5877 -11.931754,10.28906 -0.388037,1.63528 -0.425494,2.40252 -1.091871,1.81392 -2.605201,-4.16975 -0.0312,-9.72264 -0.536057,-11.51745 -0.271518,-0.70757 -0.836949,-0.57132 -2.749355,0.48665 -3.5952517,1.98897 -5.9446457,5.08655 -7.3093717,10.68856 -0.469346,1.92663 -0.466208,4.71336 -1.169957,4.78233 -0.67236,0.22413 -0.98346,-2.25021 -0.98346,-5.85072 0,-3.845 -0.549729,-4.72865 -1.672217,-5.11701 -0.888917,0.22481 -1.25411998,0.29258 -2.59826598,1.99802 -2.81284202,3.56897 -4.22807102,7.15071 -4.22832802,9.89639 -2.83e-4,3.20885 -0.752237,3.69865 -2.623552,1.59213 -0.574002,-0.60446 -2.313582,-2.37963 -2.8216803,-2.42682 -0.72888,0 -2.245191,2.09354 -3.712594,4.84802 -0.764674,1.43536 -2.055489,3.41054 -2.872286,4.38711 -3.193011,3.46107 -4.038094,6.12736 -3.985817,6.91911 -0.0077,5.62642 1.59474,5.60803 2.088343,9.24198 0.519069,2.61048 4.065506,2.18658 5.011457,0.38044 z m 2.206192,7.107 c 2.7339683,-0.25678 3.1370403,-0.80898 2.4591513,-2.3383 1.288457,-3.3574 -1.5417343,-0.89566 -1.9866943,-2.15016 -0.141077,-1.16056 -0.599237,-1.80837 -1.30716,-1.80837 -0.504737,0 -1.098626,0.55425 -1.206403,0.7286 -0.421337,0.60664 -1.756886,1.65543 -2.59614,0.96751 -0.259474,-0.20489 -0.754594,-0.33406 -1.174766,-0.20096 -2.582717,0.99192 -5.994763,7.16425 -3.624471,9.5447 2.481514,-3.72891 5.093545,-4.28654 9.436483,-4.74305 z m 66.149323,84.41906 c 0.621557,1.13236 0.973448,2.56809 1.001588,4.36806 -1.154014,1.40052 -2.219237,2.40436 -3.589045,3.44993 -0.699635,0.31203 -1.133392,-0.55811 -0.945952,-1.08506 1.183569,-2.10763 2.552409,-4.27436 3.533409,-6.73293 z"/>
  </g>
</svg>